HIERARCHY
ROOT root
{
	OFFSET 0.000000 0.000000 0.000000
	CHANNELS 6 Xposition Yposition Zposition Zrotation Yrotation Xrotation
	JOINT lhip
	{
		OFFSET 0.058581 -0.082280 -0.017664
		CHANNELS 3 Zrotation Yrotation Xrotation
		JOINT lknee
		{
			OFFSET 0.043451 -0.386469 0.008037
			CHANNELS 3 Zrotation Yrotation Xrotation
			JOINT lankle
			{
				OFFSET -0.014790 -0.426874 -0.037428
				CHANNELS 3 Zrotation Yrotation Xrotation
				JOINT ltoe
				{
					OFFSET 0.041054 -0.060286 0.122042
					CHANNELS 3 Zrotation Yrotation Xrotation
					End Site
					{
						OFFSET 0.000000 0.000000 0.000000
					}
				}
			}
		}
	}
	JOINT rhip
	{
		OFFSET -0.060310 -0.090513 -0.013543
		CHANNELS 3 Zrotation Yrotation Xrotation
		JOINT rknee
		{
			OFFSET -0.043257 -0.383688 -0.004843
			CHANNELS 3 Zrotation Yrotation Xrotation
			JOINT rankle
			{
				OFFSET 0.019056 -0.420046 -0.034562
				CHANNELS 3 Zrotation Yrotation Xrotation
				JOINT rtoe
				{
					OFFSET -0.034840 -0.062106 0.130323
					CHANNELS 3 Zrotation Yrotation Xrotation
					End Site
					{
						OFFSET 0.000000 0.000000 0.000000
					}
				}
			}
		}
	}
	JOINT lowerback
	{
		OFFSET 0.004439 0.124404 -0.038385
		CHANNELS 3 Zrotation Yrotation Xrotation
		JOINT upperback
		{
			OFFSET 0.004488 0.137956 0.026820
			CHANNELS 3 Zrotation Yrotation Xrotation
			JOINT chest
			{
				OFFSET -0.002265 0.056032 0.002855
				CHANNELS 3 Zrotation Yrotation Xrotation
				JOINT lowerneck
				{
					OFFSET -0.013390 0.211636 -0.033468
					CHANNELS 3 Zrotation Yrotation Xrotation
					JOINT upperneck
					{
						OFFSET 0.010113 0.088937 0.050410
						CHANNELS 3 Zrotation Yrotation Xrotation
						End Site
						{
							OFFSET 0.000000 0.000000 0.000000
						}
					}
				}
				JOINT lclavicle
				{
					OFFSET 0.071702 0.114000 -0.018898
					CHANNELS 3 Zrotation Yrotation Xrotation
					JOINT lshoulder
					{
						OFFSET 0.122921 0.045205 -0.019046
						CHANNELS 3 Zrotation Yrotation Xrotation
						JOINT lelbow
						{
							OFFSET 0.255332 -0.015649 -0.022946
							CHANNELS 3 Zrotation Yrotation Xrotation
							JOINT lwrist
							{
								OFFSET 0.265709 0.012698 -0.007375
								CHANNELS 3 Zrotation Yrotation Xrotation
								End Site
								{
									OFFSET 0.000000 0.000000 0.000000
								}
							}
						}
					}
				}
				JOINT rclavicle
				{
					OFFSET -0.082954 0.112472 -0.023707
					CHANNELS 3 Zrotation Yrotation Xrotation
					JOINT rshoulder
					{
						OFFSET -0.113228 0.046853 -0.008472
						CHANNELS 3 Zrotation Yrotation Xrotation
						JOINT relbow
						{
							OFFSET -0.260127 -0.014369 -0.031269
							CHANNELS 3 Zrotation Yrotation Xrotation
							JOINT rwrist
							{
								OFFSET -0.269108 0.006794 -0.006027
								CHANNELS 3 Zrotation Yrotation Xrotation
								End Site
								{
									OFFSET 0.000000 0.000000 0.000000
								}
							}
						}
					}
				}
			}
		}
	}
}
MOTION
Frames: 13
Frame Time: 0.033333
-0.862429 0.760008 0.991824 92.642910 0.376018 84.749222 -0.888654 2.256865 9.582132 -4.700114 -12.535339 9.360242 1.641633 6.002610 -12.558356 0.000000 -0.000000 0.000000 1.337680 2.471340 -17.289952 -1.535935 -1.019427 24.117542 4.038376 -9.389805 -11.677902 0.000000 -0.000000 0.000000 -1.890721 -3.379063 12.447976 1.651450 -3.108853 2.103802 -0.640324 -3.289092 2.239254 0.264525 7.814055 -6.638815 -3.692251 -0.502339 14.150893 -24.559419 -8.072529 -1.730700 -46.947349 -22.345370 8.380030 14.408845 -29.932494 -4.295763 -2.203612 -6.349055 -2.908287 28.865513 5.784594 -0.645154 46.094828 7.763522 14.962913 -19.090478 33.181808 -5.172234 5.921782 7.147823 2.131628 
-0.836393 0.760453 0.990244 93.296132 0.024930 85.217141 -0.708173 3.139619 11.036558 -4.617622 -12.500003 8.548761 0.678865 5.117129 -12.032485 0.000000 -0.000000 0.000000 1.328804 1.515978 -17.498173 -2.119397 -0.251171 13.152219 3.880294 -8.902534 -7.209243 0.000000 -0.000000 0.000000 -1.759586 -3.580336 12.193260 1.412896 -3.572633 1.769257 -0.405773 -3.582265 2.119530 -0.258506 7.646632 -7.391130 -3.285518 -0.274165 14.039728 -23.380962 -9.257267 -2.452454 -44.995982 -24.979797 8.096587 14.361592 -32.780631 -4.437286 1.715967 -8.515439 -2.353572 27.938566 6.362191 -1.211893 45.348933 9.707507 15.074708 -20.070530 35.845276 -5.763513 3.926574 7.949559 2.256975 
-0.808693 0.759868 0.987215 94.123833 -0.154819 85.517097 -0.085403 3.843400 12.357424 -4.817772 -12.471049 8.509638 -0.344386 4.194286 -12.092756 0.000000 -0.000000 0.000000 1.380946 0.145613 -16.933460 -2.162558 -0.793961 3.162547 7.964739 -6.527755 -3.729976 0.000000 -0.000000 0.000000 -1.763836 -3.368918 11.368044 1.503034 -4.443871 2.037227 -0.110065 -3.532104 1.751937 -0.376428 7.727779 -6.770441 -2.749924 -0.647686 13.968102 -21.563907 -11.594082 -2.569773 -43.853789 -27.067899 8.254000 15.381888 -34.539293 -6.104937 4.691572 -9.045937 -2.727111 27.026666 7.616705 -1.019793 44.092714 11.418343 14.430782 -21.725419 38.718874 -6.783118 2.745221 8.385467 1.991051 
-0.771960 0.758676 0.981344 95.464006 -0.379083 85.395799 0.528300 4.025416 13.774815 -5.133386 -13.788531 10.208777 -0.905641 3.539557 -12.938619 0.000000 -0.000000 0.000000 1.228383 0.205762 -16.623480 -1.841705 -0.703397 -0.386592 8.229149 -5.821127 -5.753404 0.000000 -0.000000 0.000000 -1.625016 -3.523101 10.814628 1.724258 -5.060354 2.321870 -0.050907 -3.870968 1.574484 -0.635392 7.789150 -6.786268 -2.745995 -1.849971 14.388702 -19.403663 -14.441809 -3.575672 -41.315390 -29.888858 7.595286 15.361888 -35.621585 -6.858554 4.761779 -9.507112 -2.964497 25.453462 9.635554 -2.087886 42.901027 13.581945 14.043649 -23.685529 41.301218 -8.485347 2.732038 8.079997 1.212722 
-0.749012 0.758447 0.978147 96.399872 -0.437289 84.796655 0.759623 4.029169 14.700413 -5.236979 -15.360972 12.490722 -2.392176 3.616136 -13.496575 0.000000 -0.000000 0.000000 1.137427 0.329197 -16.821530 -1.685477 -1.235470 2.745827 8.500251 -6.109255 -5.190175 0.000000 -0.000000 0.000000 -1.544981 -3.829517 11.069765 1.984646 -5.272506 2.228705 0.018005 -3.978858 1.577052 -0.620176 7.995751 -6.912537 -2.978339 -1.998462 14.508297 -18.258490 -16.269318 -4.041224 -39.684201 -31.565609 7.018438 15.079108 -35.834914 -7.145144 5.885533 -10.126193 -3.105119 24.671727 11.142263 -2.586137 41.572333 15.112429 13.457561 -24.754144 42.420261 -9.721311 1.609229 8.856209 1.049413 
-0.715054 0.756431 0.975216 97.142444 -0.610821 83.892633 1.179573 3.964590 15.912238 -6.017279 -16.708063 16.255959 -3.322228 3.608076 -13.427038 0.000000 -0.000000 0.000000 1.464796 0.275447 -16.342785 -2.033361 -1.925324 6.534442 5.409213 -6.930774 0.211491 0.000000 -0.000000 0.000000 -1.656083 -4.115459 10.938567 2.203164 -5.493263 2.894729 -0.008385 -3.920759 1.173425 -0.634752 7.594963 -6.799038 -2.904355 -2.000851 14.933438 -17.089421 -18.247187 -4.532823 -37.404215 -33.002651 6.006522 15.543764 -37.352785 -7.427185 5.693563 -10.141159 -3.445777 23.919958 13.000119 -3.093269 39.919780 17.083273 12.858704 -26.192370 44.097878 -10.950848 1.440807 8.509848 0.335105 
-0.682655 0.754712 0.976253 97.913422 0.185641 83.531383 1.951668 3.225650 14.687589 -6.711100 -16.992666 22.727507 -4.922539 3.371782 -11.711963 0.000000 -0.000000 0.000000 2.335584 1.026862 -15.432969 -1.554939 -0.606947 8.573641 1.204048 -8.221479 2.050525 0.000000 -0.000000 0.000000 -0.016644 -4.584709 10.496911 2.474448 -5.719447 3.320870 -0.375308 -4.085095 0.890828 -0.915128 7.196792 -7.161258 -3.526999 -1.316220 15.186441 -16.910694 -20.644077 -4.779901 -34.320648 -33.972111 4.412001 16.293316 -38.216403 -8.109197 4.744593 -10.918901 -2.801325 22.813292 15.272519 -3.426392 38.093165 19.845792 11.823516 -26.922312 44.122797 -11.471414 0.471646 9.272391 -0.353930 
-0.650537 0.753041 0.981417 97.440317 0.656733 82.757821 2.598091 3.210830 12.826153 -7.916941 -14.989079 30.348275 -7.337949 2.316427 -6.769724 0.000000 -0.000000 0.000000 3.010733 1.399651 -14.869989 -0.630540 -0.815660 13.149616 -0.944754 -6.648829 -0.517370 0.000000 -0.000000 0.000000 0.859453 -4.536838 11.012840 2.753794 -5.424014 3.506414 -0.397368 -3.761351 0.459153 -0.807179 7.456830 -7.186944 -3.847379 -1.488668 15.637280 -15.727071 -22.422680 -5.780302 -34.225702 -34.694989 4.571194 18.160504 -39.094646 -9.949614 3.952217 -10.191643 -3.479873 21.243640 17.824805 -3.592032 37.070373 22.221537 10.525967 -28.320627 43.704771 -13.142722 0.374761 9.275053 -0.690127 
-0.621297 0.749162 0.986922 96.551560 0.585647 82.055575 3.186944 2.949364 9.432551 -9.424014 -11.312205 38.576178 -9.064188 2.042483 1.194342 0.000000 -0.000000 0.000000 3.915020 2.081090 -13.292292 -0.833120 -0.783098 15.139652 -3.136765 -6.563412 -2.956268 0.000000 -0.000000 0.000000 0.551631 -3.585662 12.052677 3.174415 -5.411897 3.439249 -0.007888 -3.365582 -0.165829 -0.974725 7.380802 -6.717625 -3.476158 -1.650360 15.436861 -14.266926 -25.093215 -5.958555 -32.086726 -34.896713 4.060906 19.351484 -39.811135 -11.760643 4.992367 -10.135104 -4.665381 19.996447 20.629190 -3.459550 34.835116 24.402513 8.951632 -28.877144 43.836260 -13.542896 -1.010668 9.220232 -1.945704 
-0.586201 0.746274 0.990072 96.530404 0.359342 81.766582 3.381005 2.644456 3.614469 -10.313531 -7.905316 48.396061 -8.748351 4.215111 4.847093 0.000000 -0.000000 0.000000 4.396720 0.751300 -11.485334 -0.443272 0.250110 16.304346 -5.274733 -6.941873 -5.339868 0.000000 -0.000000 0.000000 0.807770 -2.485427 12.090293 3.179534 -6.398943 3.682185 -0.267773 -3.059493 -0.659738 -1.200380 6.919999 -6.506879 -2.699232 -1.918237 15.842989 -11.851277 -28.311815 -6.840894 -28.468171 -35.571692 2.401591 18.883528 -39.618074 -11.093074 5.936431 -9.989360 -4.354734 17.793773 24.466365 -3.663107 32.252905 27.180533 6.862355 -29.330554 43.176728 -13.718657 -2.523551 9.444887 -2.116138 
-0.560916 0.744452 0.993290 95.716293 0.208789 81.540006 3.320023 2.873308 -0.334581 -7.460917 -3.625796 52.662746 -6.268358 7.140588 2.437083 0.000000 -0.000000 0.000000 4.823489 0.302110 -9.836396 -0.314104 1.213080 16.580682 -5.507934 -6.822966 -6.536413 0.000000 -0.000000 0.000000 1.279452 -1.566150 12.679503 2.908417 -6.445514 3.267413 -0.463955 -2.694611 -0.387458 -1.531460 6.410812 -6.481046 -2.534019 -1.931642 15.760452 -9.699972 -30.570318 -8.472941 -25.847124 -36.543690 0.896985 17.912647 -38.786444 -10.438588 7.195153 -10.198292 -2.451441 15.364366 26.898079 -4.771094 30.199730 29.815676 5.103821 -28.978351 42.532797 -14.355165 -4.179084 9.118476 -1.807621 
-0.537051 0.742648 0.997945 94.480157 -0.287366 81.285420 3.242044 3.048447 -3.385802 -4.790347 0.307468 53.816193 -3.835119 9.604945 0.269845 0.000000 -0.000000 0.000000 4.972346 -0.272577 -7.974251 -0.194055 2.470870 16.753438 -5.423474 -6.768892 -7.425090 0.000000 -0.000000 0.000000 1.256043 -0.409107 13.683117 2.476130 -6.448685 2.827200 -0.511083 -2.033707 -0.410538 -1.869611 5.892514 -6.417876 -2.214401 -2.359424 15.787002 -7.253826 -32.736208 -9.748370 -24.000850 -37.060315 -0.462033 18.009938 -38.265017 -10.456744 8.741241 -10.475961 -1.327665 12.343722 29.446234 -5.596046 28.871445 31.747914 3.299050 -30.094991 41.764333 -15.697577 -6.204946 8.778732 -1.724406 
-0.514762 0.741596 1.002273 93.399354 -0.979075 81.255526 3.039076 2.954309 -6.020186 -3.408647 3.128717 52.161265 -2.839301 11.139837 -3.623304 0.000000 -0.000000 0.000000 4.848573 -0.472426 -6.018074 -0.567825 3.454851 15.815277 -4.921765 -6.728079 -8.370837 0.000000 -0.000000 0.000000 0.958036 0.481876 14.537955 1.984270 -6.649832 2.241213 -0.503456 -1.388246 -0.250345 -1.964592 5.480269 -6.023882 -2.057599 -2.525789 15.646956 -5.061431 -34.305696 -10.974286 -22.163147 -37.476510 -1.582830 18.319405 -37.632426 -11.483027 11.285364 -11.312872 -0.640182 10.067829 31.792467 -6.614518 26.420630 34.055312 1.220782 -29.577540 40.579326 -16.448117 -9.000318 9.726809 -1.911471 
